<mxfile host="Electron" modified="2023-12-07T14:16:24.335Z" agent="Mozilla/5.0 (Windows NT 10.0; Win64; x64) AppleWebKit/537.36 (KHTML, like Gecko) draw.io/22.1.2 Chrome/114.0.5735.289 Electron/25.9.4 Safari/537.36" etag="ZaLxJzNMJtZyn2FSn6k9" version="22.1.2" type="device">
  <diagram id="C5RBs43oDa-KdzZeNtuy" name="Page-1">
    <mxGraphModel dx="668" dy="396" grid="1" gridSize="10" guides="1" tooltips="1" connect="1" arrows="1" fold="1" page="1" pageScale="1" pageWidth="1169" pageHeight="827" math="0" shadow="0">
      <root>
        <mxCell id="WIyWlLk6GJQsqaUBKTNV-0" />
        <mxCell id="WIyWlLk6GJQsqaUBKTNV-1" parent="WIyWlLk6GJQsqaUBKTNV-0" />
        <mxCell id="zkfFHV4jXpPFQw0GAbJ--12" value="" style="endArrow=block;endSize=10;endFill=0;shadow=0;strokeWidth=1;rounded=0;edgeStyle=elbowEdgeStyle;elbow=vertical;" parent="WIyWlLk6GJQsqaUBKTNV-1" edge="1">
          <mxGeometry width="160" relative="1" as="geometry">
            <mxPoint x="727.0000000000001" y="383" as="sourcePoint" />
            <mxPoint x="727.0000000000001" y="373" as="targetPoint" />
          </mxGeometry>
        </mxCell>
        <mxCell id="8AZYTR-ByNm-JyPTVqFP-9" value="HumanFriends" style="swimlane;fontStyle=1;align=center;verticalAlign=top;childLayout=stackLayout;horizontal=1;startSize=26;horizontalStack=0;resizeParent=1;resizeParentMax=0;resizeLast=0;collapsible=1;marginBottom=0;whiteSpace=wrap;html=1;" vertex="1" parent="WIyWlLk6GJQsqaUBKTNV-1">
          <mxGeometry x="470" y="10" width="200" height="170" as="geometry" />
        </mxCell>
        <mxCell id="8AZYTR-ByNm-JyPTVqFP-10" value="id:int&lt;br&gt;name: String&lt;br&gt;birthDate: Date&lt;br&gt;commands : List &amp;lt;String&amp;gt;" style="text;strokeColor=none;fillColor=none;align=left;verticalAlign=top;spacingLeft=4;spacingRight=4;overflow=hidden;rotatable=0;points=[[0,0.5],[1,0.5]];portConstraint=eastwest;whiteSpace=wrap;html=1;" vertex="1" parent="8AZYTR-ByNm-JyPTVqFP-9">
          <mxGeometry y="26" width="200" height="74" as="geometry" />
        </mxCell>
        <mxCell id="8AZYTR-ByNm-JyPTVqFP-11" value="" style="line;strokeWidth=1;fillColor=none;align=left;verticalAlign=middle;spacingTop=-1;spacingLeft=3;spacingRight=3;rotatable=0;labelPosition=right;points=[];portConstraint=eastwest;strokeColor=inherit;" vertex="1" parent="8AZYTR-ByNm-JyPTVqFP-9">
          <mxGeometry y="100" width="200" height="8" as="geometry" />
        </mxCell>
        <mxCell id="8AZYTR-ByNm-JyPTVqFP-12" value="getName():String&lt;br&gt;getBirth(): Date&lt;br&gt;getCommands(): List &amp;lt;String&amp;gt;" style="text;strokeColor=none;fillColor=none;align=left;verticalAlign=top;spacingLeft=4;spacingRight=4;overflow=hidden;rotatable=0;points=[[0,0.5],[1,0.5]];portConstraint=eastwest;whiteSpace=wrap;html=1;" vertex="1" parent="8AZYTR-ByNm-JyPTVqFP-9">
          <mxGeometry y="108" width="200" height="62" as="geometry" />
        </mxCell>
        <mxCell id="8AZYTR-ByNm-JyPTVqFP-13" value="Pets" style="swimlane;fontStyle=1;align=center;verticalAlign=top;childLayout=stackLayout;horizontal=1;startSize=26;horizontalStack=0;resizeParent=1;resizeParentMax=0;resizeLast=0;collapsible=1;marginBottom=0;whiteSpace=wrap;html=1;" vertex="1" parent="WIyWlLk6GJQsqaUBKTNV-1">
          <mxGeometry x="220" y="363" width="160" height="34" as="geometry" />
        </mxCell>
        <mxCell id="8AZYTR-ByNm-JyPTVqFP-15" value="" style="line;strokeWidth=1;fillColor=none;align=left;verticalAlign=middle;spacingTop=-1;spacingLeft=3;spacingRight=3;rotatable=0;labelPosition=right;points=[];portConstraint=eastwest;strokeColor=inherit;" vertex="1" parent="8AZYTR-ByNm-JyPTVqFP-13">
          <mxGeometry y="26" width="160" height="8" as="geometry" />
        </mxCell>
        <mxCell id="8AZYTR-ByNm-JyPTVqFP-17" value="PackAnimals" style="swimlane;fontStyle=1;align=center;verticalAlign=top;childLayout=stackLayout;horizontal=1;startSize=26;horizontalStack=0;resizeParent=1;resizeParentMax=0;resizeLast=0;collapsible=1;marginBottom=0;whiteSpace=wrap;html=1;" vertex="1" parent="WIyWlLk6GJQsqaUBKTNV-1">
          <mxGeometry x="720" y="363" width="160" height="34" as="geometry" />
        </mxCell>
        <mxCell id="8AZYTR-ByNm-JyPTVqFP-19" value="" style="line;strokeWidth=1;fillColor=none;align=left;verticalAlign=middle;spacingTop=-1;spacingLeft=3;spacingRight=3;rotatable=0;labelPosition=right;points=[];portConstraint=eastwest;strokeColor=inherit;" vertex="1" parent="8AZYTR-ByNm-JyPTVqFP-17">
          <mxGeometry y="26" width="160" height="8" as="geometry" />
        </mxCell>
        <mxCell id="8AZYTR-ByNm-JyPTVqFP-26" value="Extends" style="endArrow=block;endSize=16;endFill=0;html=1;rounded=0;exitX=0.5;exitY=0;exitDx=0;exitDy=0;" edge="1" parent="WIyWlLk6GJQsqaUBKTNV-1" source="8AZYTR-ByNm-JyPTVqFP-13" target="8AZYTR-ByNm-JyPTVqFP-12">
          <mxGeometry width="160" relative="1" as="geometry">
            <mxPoint x="448" y="220" as="sourcePoint" />
            <mxPoint x="490" y="160" as="targetPoint" />
          </mxGeometry>
        </mxCell>
        <mxCell id="8AZYTR-ByNm-JyPTVqFP-28" value="Extends" style="endArrow=block;endSize=16;endFill=0;html=1;rounded=0;exitX=0.45;exitY=-0.028;exitDx=0;exitDy=0;exitPerimeter=0;" edge="1" parent="WIyWlLk6GJQsqaUBKTNV-1" source="8AZYTR-ByNm-JyPTVqFP-17" target="8AZYTR-ByNm-JyPTVqFP-12">
          <mxGeometry width="160" relative="1" as="geometry">
            <mxPoint x="608" y="210" as="sourcePoint" />
            <mxPoint x="600" y="160" as="targetPoint" />
          </mxGeometry>
        </mxCell>
        <mxCell id="8AZYTR-ByNm-JyPTVqFP-34" value="Dog" style="swimlane;fontStyle=1;align=center;verticalAlign=top;childLayout=stackLayout;horizontal=1;startSize=26;horizontalStack=0;resizeParent=1;resizeParentMax=0;resizeLast=0;collapsible=1;marginBottom=0;whiteSpace=wrap;html=1;" vertex="1" parent="WIyWlLk6GJQsqaUBKTNV-1">
          <mxGeometry x="213" y="542" width="160" height="34" as="geometry" />
        </mxCell>
        <mxCell id="8AZYTR-ByNm-JyPTVqFP-36" value="" style="line;strokeWidth=1;fillColor=none;align=left;verticalAlign=middle;spacingTop=-1;spacingLeft=3;spacingRight=3;rotatable=0;labelPosition=right;points=[];portConstraint=eastwest;strokeColor=inherit;" vertex="1" parent="8AZYTR-ByNm-JyPTVqFP-34">
          <mxGeometry y="26" width="160" height="8" as="geometry" />
        </mxCell>
        <mxCell id="8AZYTR-ByNm-JyPTVqFP-38" value="Extends" style="endArrow=block;endSize=16;endFill=0;html=1;rounded=0;entryX=0.5;entryY=1;entryDx=0;entryDy=0;" edge="1" parent="WIyWlLk6GJQsqaUBKTNV-1" target="8AZYTR-ByNm-JyPTVqFP-13">
          <mxGeometry width="160" relative="1" as="geometry">
            <mxPoint x="296" y="541" as="sourcePoint" />
            <mxPoint x="299.6030534351146" y="423" as="targetPoint" />
          </mxGeometry>
        </mxCell>
        <mxCell id="8AZYTR-ByNm-JyPTVqFP-39" value="Hamster" style="swimlane;fontStyle=1;align=center;verticalAlign=top;childLayout=stackLayout;horizontal=1;startSize=26;horizontalStack=0;resizeParent=1;resizeParentMax=0;resizeLast=0;collapsible=1;marginBottom=0;whiteSpace=wrap;html=1;" vertex="1" parent="WIyWlLk6GJQsqaUBKTNV-1">
          <mxGeometry x="396" y="542" width="160" height="34" as="geometry" />
        </mxCell>
        <mxCell id="8AZYTR-ByNm-JyPTVqFP-41" value="" style="line;strokeWidth=1;fillColor=none;align=left;verticalAlign=middle;spacingTop=-1;spacingLeft=3;spacingRight=3;rotatable=0;labelPosition=right;points=[];portConstraint=eastwest;strokeColor=inherit;" vertex="1" parent="8AZYTR-ByNm-JyPTVqFP-39">
          <mxGeometry y="26" width="160" height="8" as="geometry" />
        </mxCell>
        <mxCell id="8AZYTR-ByNm-JyPTVqFP-43" value="Horse" style="swimlane;fontStyle=1;align=center;verticalAlign=top;childLayout=stackLayout;horizontal=1;startSize=26;horizontalStack=0;resizeParent=1;resizeParentMax=0;resizeLast=0;collapsible=1;marginBottom=0;whiteSpace=wrap;html=1;" vertex="1" parent="WIyWlLk6GJQsqaUBKTNV-1">
          <mxGeometry x="576" y="542" width="160" height="34" as="geometry" />
        </mxCell>
        <mxCell id="8AZYTR-ByNm-JyPTVqFP-45" value="" style="line;strokeWidth=1;fillColor=none;align=left;verticalAlign=middle;spacingTop=-1;spacingLeft=3;spacingRight=3;rotatable=0;labelPosition=right;points=[];portConstraint=eastwest;strokeColor=inherit;" vertex="1" parent="8AZYTR-ByNm-JyPTVqFP-43">
          <mxGeometry y="26" width="160" height="8" as="geometry" />
        </mxCell>
        <mxCell id="8AZYTR-ByNm-JyPTVqFP-47" value="Camel" style="swimlane;fontStyle=1;align=center;verticalAlign=top;childLayout=stackLayout;horizontal=1;startSize=26;horizontalStack=0;resizeParent=1;resizeParentMax=0;resizeLast=0;collapsible=1;marginBottom=0;whiteSpace=wrap;html=1;" vertex="1" parent="WIyWlLk6GJQsqaUBKTNV-1">
          <mxGeometry x="756" y="540" width="160" height="34" as="geometry" />
        </mxCell>
        <mxCell id="8AZYTR-ByNm-JyPTVqFP-49" value="" style="line;strokeWidth=1;fillColor=none;align=left;verticalAlign=middle;spacingTop=-1;spacingLeft=3;spacingRight=3;rotatable=0;labelPosition=right;points=[];portConstraint=eastwest;strokeColor=inherit;" vertex="1" parent="8AZYTR-ByNm-JyPTVqFP-47">
          <mxGeometry y="26" width="160" height="8" as="geometry" />
        </mxCell>
        <mxCell id="8AZYTR-ByNm-JyPTVqFP-51" value="Donkey" style="swimlane;fontStyle=1;align=center;verticalAlign=top;childLayout=stackLayout;horizontal=1;startSize=26;horizontalStack=0;resizeParent=1;resizeParentMax=0;resizeLast=0;collapsible=1;marginBottom=0;whiteSpace=wrap;html=1;" vertex="1" parent="WIyWlLk6GJQsqaUBKTNV-1">
          <mxGeometry x="936" y="542" width="160" height="34" as="geometry" />
        </mxCell>
        <mxCell id="8AZYTR-ByNm-JyPTVqFP-53" value="" style="line;strokeWidth=1;fillColor=none;align=left;verticalAlign=middle;spacingTop=-1;spacingLeft=3;spacingRight=3;rotatable=0;labelPosition=right;points=[];portConstraint=eastwest;strokeColor=inherit;" vertex="1" parent="8AZYTR-ByNm-JyPTVqFP-51">
          <mxGeometry y="26" width="160" height="8" as="geometry" />
        </mxCell>
        <mxCell id="8AZYTR-ByNm-JyPTVqFP-56" value="Cat" style="swimlane;fontStyle=1;align=center;verticalAlign=top;childLayout=stackLayout;horizontal=1;startSize=26;horizontalStack=0;resizeParent=1;resizeParentMax=0;resizeLast=0;collapsible=1;marginBottom=0;whiteSpace=wrap;html=1;" vertex="1" parent="WIyWlLk6GJQsqaUBKTNV-1">
          <mxGeometry x="36" y="542" width="160" height="34" as="geometry" />
        </mxCell>
        <mxCell id="8AZYTR-ByNm-JyPTVqFP-58" value="" style="line;strokeWidth=1;fillColor=none;align=left;verticalAlign=middle;spacingTop=-1;spacingLeft=3;spacingRight=3;rotatable=0;labelPosition=right;points=[];portConstraint=eastwest;strokeColor=inherit;" vertex="1" parent="8AZYTR-ByNm-JyPTVqFP-56">
          <mxGeometry y="26" width="160" height="8" as="geometry" />
        </mxCell>
        <mxCell id="8AZYTR-ByNm-JyPTVqFP-61" value="Extends" style="endArrow=block;endSize=16;endFill=0;html=1;rounded=0;exitX=0.5;exitY=0;exitDx=0;exitDy=0;entryX=0.25;entryY=1;entryDx=0;entryDy=0;" edge="1" parent="WIyWlLk6GJQsqaUBKTNV-1" source="8AZYTR-ByNm-JyPTVqFP-56" target="8AZYTR-ByNm-JyPTVqFP-13">
          <mxGeometry width="160" relative="1" as="geometry">
            <mxPoint x="86" y="503" as="sourcePoint" />
            <mxPoint x="257.9200000000001" y="424.8460000000001" as="targetPoint" />
          </mxGeometry>
        </mxCell>
        <mxCell id="8AZYTR-ByNm-JyPTVqFP-62" value="Extends" style="endArrow=block;endSize=16;endFill=0;html=1;rounded=0;exitX=0.5;exitY=0;exitDx=0;exitDy=0;entryX=0.75;entryY=1;entryDx=0;entryDy=0;" edge="1" parent="WIyWlLk6GJQsqaUBKTNV-1" source="8AZYTR-ByNm-JyPTVqFP-39" target="8AZYTR-ByNm-JyPTVqFP-13">
          <mxGeometry width="160" relative="1" as="geometry">
            <mxPoint x="456" y="503" as="sourcePoint" />
            <mxPoint x="359.3600000000001" y="421.8040000000001" as="targetPoint" />
          </mxGeometry>
        </mxCell>
        <mxCell id="8AZYTR-ByNm-JyPTVqFP-63" value="Extends" style="endArrow=block;endSize=16;endFill=0;html=1;rounded=0;entryX=0.5;entryY=1;entryDx=0;entryDy=0;" edge="1" parent="WIyWlLk6GJQsqaUBKTNV-1" target="8AZYTR-ByNm-JyPTVqFP-17">
          <mxGeometry width="160" relative="1" as="geometry">
            <mxPoint x="825" y="542" as="sourcePoint" />
            <mxPoint x="822" y="450" as="targetPoint" />
          </mxGeometry>
        </mxCell>
        <mxCell id="8AZYTR-ByNm-JyPTVqFP-64" value="Extends" style="endArrow=block;endSize=16;endFill=0;html=1;rounded=0;exitX=0.5;exitY=0;exitDx=0;exitDy=0;" edge="1" parent="WIyWlLk6GJQsqaUBKTNV-1">
          <mxGeometry width="160" relative="1" as="geometry">
            <mxPoint x="645" y="543" as="sourcePoint" />
            <mxPoint x="750" y="400" as="targetPoint" />
          </mxGeometry>
        </mxCell>
        <mxCell id="8AZYTR-ByNm-JyPTVqFP-65" value="Extends" style="endArrow=block;endSize=16;endFill=0;html=1;rounded=0;exitX=0.5;exitY=0;exitDx=0;exitDy=0;" edge="1" parent="WIyWlLk6GJQsqaUBKTNV-1">
          <mxGeometry width="160" relative="1" as="geometry">
            <mxPoint x="1005" y="543" as="sourcePoint" />
            <mxPoint x="850" y="400" as="targetPoint" />
          </mxGeometry>
        </mxCell>
      </root>
    </mxGraphModel>
  </diagram>
</mxfile>
